<svg viewBox="0 0 900 100" xmlns="http://www.w3.org/2000/svg">
  <rect width="900" height="100" fill="#0a0a0f"/>
  <defs>
    <pattern id="dots" x="0" y="0" width="28" height="28" patternUnits="userSpaceOnUse">
      <circle cx="14" cy="14" r="1.4" fill="#7c3aed" opacity="0.3"/>
    </pattern>
  </defs>
  <rect width="900" height="100" fill="url(#dots)"/>

  <line x1="0" y1="50" x2="900" y2="50" stroke="#7c3aed" stroke-width="0.4" opacity="0.15"/>

  <polyline points="18,24 18,10 32,10"   fill="none" stroke="#7c3aed" stroke-width="1.2" opacity="0.55"/>
  <polyline points="882,24 882,10 868,10" fill="none" stroke="#7c3aed" stroke-width="1.2" opacity="0.55"/>
  <polyline points="18,76 18,90 32,90"   fill="none" stroke="#7c3aed" stroke-width="1.2" opacity="0.55"/>
  <polyline points="882,76 882,90 868,90" fill="none" stroke="#7c3aed" stroke-width="1.2" opacity="0.55"/>

  <!-- ── LINKEDIN ── -->
  <a href="https://www.linkedin.com/in/furqan-ahmad-6149ba281/" target="_blank">
    <rect x="50" y="20" width="120" height="60" rx="8"
          fill="#0a0a0f" fill-opacity="0.85" stroke="#7c3aed" stroke-width="0.6" opacity="0.7"/>
    <g transform="translate(101,33) scale(0.85)" fill="#a78bfa">
      <!-- LinkedIn official path, centered -->
      <g transform="translate(-12,-12)">
        <path d="M20.447 20.452h-3.554v-5.569c0-1.328-.027-3.037-1.852-3.037
                 -1.853 0-2.136 1.445-2.136 2.939v5.667H9.351V9h3.414v1.561h.046
                 c.477-.9 1.637-1.85 3.37-1.85 3.601 0 4.267 2.37 4.267 5.455v6.286z
                 M5.337 7.433a2.062 2.062 0 0 1-2.063-2.065 2.064 2.064 0 1 1 2.063 2.065z
                 m1.782 13.019H3.555V9h3.564v11.452z
                 M22.225 0H1.771C.792 0 0 .774 0 1.729v20.542C0 23.227.792 24 1.771 24h20.451
                 C23.2 24 24 23.227 24 22.271V1.729C24 .774 23.2 0 22.222 0h.003z"/>
      </g>
    </g>
    <text x="110" y="68" fill="#a78bfa" font-family="monospace" font-size="10"
          text-anchor="middle" letter-spacing="1.5">LINKEDIN</text>
  </a>

  <!-- ── GITHUB ── -->
  <a href="https://github.com/furqanRupom" target="_blank">
    <rect x="190" y="20" width="120" height="60" rx="8"
          fill="#0a0a0f" fill-opacity="0.85" stroke="#7c3aed" stroke-width="0.6" opacity="0.7"/>
    <g transform="translate(239,32) scale(0.88)" fill="#a78bfa">
      <g transform="translate(-12,-12)">
        <path d="M12 .297c-6.63 0-12 5.373-12 12 0 5.303 3.438 9.8 8.205 11.385
                 .6.113.82-.258.82-.577 0-.285-.01-1.04-.015-2.04
                 -3.338.724-4.042-1.61-4.042-1.61C4.422 18.07 3.633 17.7 3.633 17.7
                 c-1.087-.744.084-.729.084-.729 1.205.084 1.838 1.236 1.838 1.236
                 1.07 1.835 2.809 1.305 3.495.998.108-.776.417-1.305.76-1.605
                 -2.665-.3-5.466-1.332-5.466-5.93 0-1.31.465-2.38 1.235-3.22
                 -.135-.303-.54-1.523.105-3.176 0 0 1.005-.322 3.3 1.23
                 .96-.267 1.98-.399 3-.405 1.02.006 2.04.138 3 .405
                 2.28-1.552 3.285-1.23 3.285-1.23.645 1.653.24 2.873.12 3.176
                 .765.84 1.23 1.91 1.23 3.22 0 4.61-2.805 5.625-5.475 5.92
                 .42.36.81 1.096.81 2.22 0 1.606-.015 2.896-.015 3.286
                 0 .315.21.69.825.57C20.565 22.092 24 17.592 24 12.297
                 c0-6.627-5.373-12-12-12"/>
      </g>
    </g>
    <text x="250" y="68" fill="#a78bfa" font-family="monospace" font-size="10"
          text-anchor="middle" letter-spacing="1.5">GITHUB</text>
  </a>

  <!-- ── X / TWITTER ── -->
  <a href="https://twitter.com/ahmad288140" target="_blank">
    <rect x="330" y="20" width="120" height="60" rx="8"
          fill="#0a0a0f" fill-opacity="0.85" stroke="#7c3aed" stroke-width="0.6" opacity="0.7"/>
    <g transform="translate(379,32) scale(0.88)" fill="#a78bfa">
      <g transform="translate(-12,-12)">
        <path d="M18.244 2.25h3.308l-7.227 8.26 8.502 11.24H16.17l-4.714-6.231
                 -5.401 6.231H2.744l7.737-8.835L2.25 2.25h6.865l4.265 5.638
                 L18.244 2.25zm-1.161 17.52h1.833L7.084 4.126H5.117z"/>
      </g>
    </g>
    <text x="390" y="68" fill="#a78bfa" font-family="monospace" font-size="10"
          text-anchor="middle" letter-spacing="1.5">X · TWITTER</text>
  </a>

  <!-- ── DAILY.DEV ── -->
  <a href="https://app.daily.dev/fab978" target="_blank">
    <rect x="470" y="20" width="120" height="60" rx="8"
          fill="#0a0a0f" fill-opacity="0.85" stroke="#7c3aed" stroke-width="0.6" opacity="0.7"/>
    <g transform="translate(519,32) scale(0.88)" fill="#a78bfa">
      <g transform="translate(-12,-12)">
        <path d="M8.969 2.084 0 12l8.969 9.916L12 19.23 4.624 12 12 4.77 8.969 2.084z
                 M15.031 2.084 12 4.77 19.376 12 12 19.23l3.031 2.686L24 12 15.031 2.084z"/>
      </g>
    </g>
    <text x="530" y="68" fill="#a78bfa" font-family="monospace" font-size="10"
          text-anchor="middle" letter-spacing="1.5">DAILY.DEV</text>
  </a>

  <!-- ── HASHNODE ── -->
  <a href="https://hashnode.com/@fab000" target="_blank">
    <rect x="610" y="20" width="120" height="60" rx="8"
          fill="#0a0a0f" fill-opacity="0.85" stroke="#7c3aed" stroke-width="0.6" opacity="0.7"/>
    <g transform="translate(659,32) scale(0.88)" fill="#a78bfa">
      <g transform="translate(-12,-12)">
        <path d="M22.351 8.019 15.98 1.648a5.63 5.63 0 0 0-7.96 0L1.648 8.019a5.63 5.63 0 0 0 0 7.962
                 l6.371 6.371a5.63 5.63 0 0 0 7.96 0l6.372-6.371a5.63 5.63 0 0 0 0-7.962z
                 M12 15.894A3.894 3.894 0 1 1 12 8.106a3.894 3.894 0 0 1 0 7.788z"/>
      </g>
    </g>
    <text x="670" y="68" fill="#a78bfa" font-family="monospace" font-size="10"
          text-anchor="middle" letter-spacing="1.5">HASHNODE</text>
  </a>

  <!-- ── LEETCODE ── -->
  <a href="https://leetcode.com/furqanRupom978" target="_blank">
    <rect x="750" y="20" width="120" height="60" rx="8"
          fill="#0a0a0f" fill-opacity="0.85" stroke="#7c3aed" stroke-width="0.6" opacity="0.7"/>
    <g transform="translate(799,32) scale(0.88)" fill="#a78bfa">
      <g transform="translate(-12,-12)">
        <path d="M13.483 0a1.374 1.374 0 0 0-.961.438L7.116 6.226l-3.854 4.126
                 a5.295 5.295 0 0 0-1.13 1.698 5.08 5.08 0 0 0 .002 3.808
                 5.249 5.249 0 0 0 1.132 1.692l3.854 4.124a1.386 1.386 0 0 0 2-.025
                 1.389 1.389 0 0 0-.025-1.971l-3.848-4.118a2.46 2.46 0 0 1-.527-.787
                 2.39 2.39 0 0 1 0-1.782c.12-.29.3-.55.527-.788l3.848-4.117
                 a1.389 1.389 0 0 0 .025-1.971 1.386 1.386 0 0 0-1-.413z
                 M20.845 9.214l-4.883-4.56a1.56 1.56 0 0 0-2.29.023
                 1.56 1.56 0 0 0 .023 2.284l4.846 4.525-4.846 4.525
                 a1.56 1.56 0 0 0-.023 2.284 1.56 1.56 0 0 0 2.29.023l4.883-4.56
                 a1.586 1.586 0 0 0 0-2.544z
                 M10.726 16.075H4.186a1.39 1.39 0 1 0 0 2.779h6.54
                 a1.39 1.39 0 1 0 0-2.779z"/>
      </g>
    </g>
    <text x="810" y="68" fill="#a78bfa" font-family="monospace" font-size="10"
          text-anchor="middle" letter-spacing="1.5">LEETCODE</text>
  </a>

</svg>
