<svg viewBox="0 0 160 60" xmlns="http://www.w3.org/2000/svg">
  <rect width="160" height="60" fill="#0a0a0f"/>
  <defs>
    <pattern id="dots" x="0" y="0" width="28" height="28" patternUnits="userSpaceOnUse">
      <circle cx="14" cy="14" r="1.4" fill="#7c3aed" opacity="0.3"/>
    </pattern>
  </defs>
  <rect width="160" height="60" fill="url(#dots)"/>
  <polyline points="10,18 10,8 20,8"   fill="none" stroke="#7c3aed" stroke-width="1" opacity="0.6"/>
  <polyline points="150,18 150,8 140,8" fill="none" stroke="#7c3aed" stroke-width="1" opacity="0.6"/>
  <polyline points="10,42 10,52 20,52"   fill="none" stroke="#7c3aed" stroke-width="1" opacity="0.6"/>
  <polyline points="150,42 150,52 140,52" fill="none" stroke="#7c3aed" stroke-width="1" opacity="0.6"/>
  <rect x="8" y="8" width="144" height="44" rx="7"
        fill="#0a0a0f" fill-opacity="0.85" stroke="#7c3aed" stroke-width="0.6" opacity="0.7"/>
  <g transform="translate(38,18) scale(0.92)" fill="#a78bfa">
    <g transform="translate(-12,-12)">
      <path d="M8.969 2.084 0 12l8.969 9.916L12 19.23 4.624 12 12 4.77 8.969 2.084z
               M15.031 2.084 12 4.77 19.376 12 12 19.23l3.031 2.686L24 12 15.031 2.084z"/>
    </g>
  </g>
  <text x="100" y="35" fill="#ffffff" font-family="monospace" font-size="11"
        text-anchor="middle" letter-spacing="1.5">DAILY.DEV</text>
</svg>
