<svg viewBox="0 0 160 60" xmlns="http://www.w3.org/2000/svg">
  <rect width="160" height="60" fill="#0a0a0f"/>
  <defs>
    <pattern id="dots" x="0" y="0" width="28" height="28" patternUnits="userSpaceOnUse">
      <circle cx="14" cy="14" r="1.4" fill="#7c3aed" opacity="0.3"/>
    </pattern>
  </defs>
  <rect width="160" height="60" fill="url(#dots)"/>
  <polyline points="10,18 10,8 20,8"   fill="none" stroke="#7c3aed" stroke-width="1" opacity="0.6"/>
  <polyline points="150,18 150,8 140,8" fill="none" stroke="#7c3aed" stroke-width="1" opacity="0.6"/>
  <polyline points="10,42 10,52 20,52"   fill="none" stroke="#7c3aed" stroke-width="1" opacity="0.6"/>
  <polyline points="150,42 150,52 140,52" fill="none" stroke="#7c3aed" stroke-width="1" opacity="0.6"/>
  <rect x="8" y="8" width="144" height="44" rx="7"
        fill="#0a0a0f" fill-opacity="0.85" stroke="#7c3aed" stroke-width="0.6" opacity="0.7"/>
  <g transform="translate(38,18) scale(0.92)" fill="#a78bfa">
    <g transform="translate(-12,-12)">
      <path d="M22.351 8.019 15.98 1.648a5.63 5.63 0 0 0-7.96 0L1.648 8.019a5.63 5.63 0 0 0 0 7.962
               l6.371 6.371a5.63 5.63 0 0 0 7.96 0l6.372-6.371a5.63 5.63 0 0 0 0-7.962z
               M12 15.894A3.894 3.894 0 1 1 12 8.106a3.894 3.894 0 0 1 0 7.788z"/>
    </g>
  </g>
  <text x="100" y="35" fill="#ffffff" font-family="monospace" font-size="11"
        text-anchor="middle" letter-spacing="1.5">HASHNODE</text>
  <text x="100" y="48" fill="#a78bfa" font-family="monospace" font-size="8.5"
        text-anchor="middle" letter-spacing="1">@furqanRupom</text>
</svg>
