<svg viewBox="0 0 160 60" xmlns="http://www.w3.org/2000/svg">
  <rect width="160" height="60" fill="#0a0a0f"/>
  <defs>
    <pattern id="dots" x="0" y="0" width="28" height="28" patternUnits="userSpaceOnUse">
      <circle cx="14" cy="14" r="1.4" fill="#7c3aed" opacity="0.3"/>
    </pattern>
  </defs>
  <rect width="160" height="60" fill="url(#dots)"/>

  <polyline points="10,18 10,8 20,8"    fill="none" stroke="#7c3aed" stroke-width="1" opacity="0.6"/>
  <polyline points="150,18 150,8 140,8" fill="none" stroke="#7c3aed" stroke-width="1" opacity="0.6"/>
  <polyline points="10,42 10,52 20,52"  fill="none" stroke="#7c3aed" stroke-width="1" opacity="0.6"/>
  <polyline points="150,42 150,52 140,52" fill="none" stroke="#7c3aed" stroke-width="1" opacity="0.6"/>

  <rect x="8" y="8" width="144" height="44" rx="7"
        fill="#0a0a0f" fill-opacity="0.85" stroke="#7c3aed" stroke-width="0.6" opacity="0.7"/>

  <!-- Your custom LeetCode logo, scaled and centered at x=38 y=30 -->
  <g transform="translate(16, 6) scale(1.0)">
    <g transform="scale(0.47) translate(0, 0)">
      <path fill="none" stroke="#a78bfa" stroke-linecap="round" stroke-linejoin="round" stroke-width="1.728"
            d="M33.8092,34.8772,26.8725,41.814a5.7258,5.7258,0,0,1-8.1154,0L8.6127,31.67a5.726,5.726,0,0,1,0-8.1155L18.7571,13.41a5.7258,5.7258,0,0,1,8.1154,0L34.5,21.0373"/>
      <path fill="none" stroke="#7c3aed" stroke-linecap="round" stroke-linejoin="round" stroke-width="1.728"
            d="M18.7571,13.41,27.7647,4.5"/>
      <path fill="none" stroke="#a78bfa" stroke-linecap="round" stroke-linejoin="round" stroke-width="1.728"
            d="M19.5838,27.5918h21.49"/>
    </g>
  </g>

  <text x="100" y="35" fill="#ffffff" font-family="monospace" font-size="11"
        text-anchor="middle" letter-spacing="1.5">LEETCODE</text>
</svg>
