<svg viewBox="0 0 160 60" xmlns="http://www.w3.org/2000/svg">
  <rect width="160" height="60" fill="#0a0a0f"/>
  <defs>
    <pattern id="dots" x="0" y="0" width="28" height="28" patternUnits="userSpaceOnUse">
      <circle cx="14" cy="14" r="1.4" fill="#7c3aed" opacity="0.3"/>
    </pattern>
  </defs>
  <rect width="160" height="60" fill="url(#dots)"/>
  <polyline points="10,18 10,8 20,8"   fill="none" stroke="#7c3aed" stroke-width="1" opacity="0.6"/>
  <polyline points="150,18 150,8 140,8" fill="none" stroke="#7c3aed" stroke-width="1" opacity="0.6"/>
  <polyline points="10,42 10,52 20,52"   fill="none" stroke="#7c3aed" stroke-width="1" opacity="0.6"/>
  <polyline points="150,42 150,52 140,52" fill="none" stroke="#7c3aed" stroke-width="1" opacity="0.6"/>
  <rect x="8" y="8" width="144" height="44" rx="7"
        fill="#0a0a0f" fill-opacity="0.85" stroke="#7c3aed" stroke-width="0.6" opacity="0.7"/>
  <g transform="translate(38,18) scale(0.92)" fill="#a78bfa">
    <g transform="translate(-12,-12)">
      <path d="M20.447 20.452h-3.554v-5.569c0-1.328-.027-3.037-1.852-3.037
               -1.853 0-2.136 1.445-2.136 2.939v5.667H9.351V9h3.414v1.561h.046
               c.477-.9 1.637-1.85 3.37-1.85 3.601 0 4.267 2.37 4.267 5.455v6.286z
               M5.337 7.433a2.062 2.062 0 0 1-2.063-2.065 2.064 2.064 0 1 1 2.063 2.065z
               m1.782 13.019H3.555V9h3.564v11.452z
               M22.225 0H1.771C.792 0 0 .774 0 1.729v20.542C0 23.227.792 24 1.771 24h20.451
               C23.2 24 24 23.227 24 22.271V1.729C24 .774 23.2 0 22.222 0h.003z"/>
    </g>
  </g>
  <text x="100" y="35" fill="#ffffff" font-family="monospace" font-size="11"
        text-anchor="middle" letter-spacing="1.5">LINKEDIN</text>
</svg>
